<?xml version="1.0" encoding="utf-8"?>
<!-- Generator: Adobe Illustrator 23.0.6, SVG Export Plug-In . SVG Version: 6.00 Build 0)  -->
<svg version="1.1" id="Layer_1" xmlns="http://www.w3.org/2000/svg" xmlns:xlink="http://www.w3.org/1999/xlink" x="0px" y="0px"
	 viewBox="0 0 36 36" style="enable-background:new 0 0 36 36;" xml:space="preserve">
<style type="text/css">
	.st0{fill:#0D91D6;}
	.st1{fill:#F88909;}
	.st2{fill:#C757BC;}
	.st3{fill:#D3638F;}
	.st4{fill:#E07063;}
	.st5{fill:#EC7D36;}
	.st6{fill:#0095D5;}
	.st7{fill:#2B88DA;}
	.st8{fill:#557BDE;}
	.st9{fill:#806EE3;}
</style>
<polygon class="st0" points="18,0 11.99,6.35 5.97,12.69 0,19 0,0 "/>
<polygon class="st1" points="18,0 17.96,0 11.97,6.33 5.96,12.68 0,18.97 0,19 0,19.09 0,36 8.69,27.31 14.87,21.13 21.06,14.94 
	27.25,8.75 36,0 "/>
<polygon class="st2" points="8.69,27.31 0,36 0,19.09 "/>
<polygon class="st3" points="14.87,21.13 8.69,27.31 0,19.09 0,19 5.97,12.69 "/>
<polygon class="st4" points="21.06,14.94 14.87,21.13 5.97,12.69 11.99,6.35 "/>
<polygon class="st5" points="27.25,8.75 21.06,14.94 11.99,6.35 18,0 "/>
<polygon class="st1" points="36,0 27.25,8.75 18,0 "/>
<polygon class="st6" points="5.51,13.15 1.99,16.88 0,15 0,7.94 "/>
<polygon class="st7" points="9.03,9.42 5.51,13.15 0,7.94 0,0.87 "/>
<polygon class="st8" points="12.56,5.7 9.03,9.42 0,0.87 0,0 6.53,0 "/>
<polygon class="st9" points="16.08,1.97 12.56,5.7 6.53,0 18,0 "/>
<polygon class="st6" points="17,19 0,36 3.35,36 11.52,36 34,36 "/>
<polygon class="st7" points="19.68,36 11.52,36 5.76,30.25 9.84,26.17 "/>
<polygon class="st8" points="27.86,36 19.68,36 9.84,26.17 13.92,22.09 "/>
<polygon class="st9" points="36,36 27.86,36 13.92,22.09 18,18 "/>
</svg>
