<?xml version="1.0" encoding="utf-8"?>
<!-- Generator: Adobe Illustrator 23.0.6, SVG Export Plug-In . SVG Version: 6.00 Build 0)  -->
<svg version="1.1" id="Layer_1" xmlns="http://www.w3.org/2000/svg" xmlns:xlink="http://www.w3.org/1999/xlink" x="0px" y="0px"
	 viewBox="0 0 100 109.3" style="enable-background:new 0 0 100 109.3;" xml:space="preserve">
<style type="text/css">
	.st0{fill:#005F9E;}
</style>
<g>
	<path class="st0" d="M100,24L64.6,3.6c0,0-5.6-3.3-14.6-3.3c-9.3,0-14.7,3.4-14.7,3.4L2.5,22.5l49.9,28.7v58l32.8-18.8
		c0,0,5.9-3.2,10.3-10.9c3.9-6.8,4.4-13.3,4.4-13.3L100,24L100,24z M46.6,33.5c0,0,7.3-1.3,13.5,2.2c6.2,3.6,9.8,5.7,9.8,5.7
		s0,5,0,12.4c0,6-5,12.1-5,12.1l0-21.8L46.6,33.5z M75.6,81.3l-10.7,6.1v-5.8l8.3-4.8c7.9-5.7,9.2-14.1,9.2-17l0-25.9L59.8,21
		c0,0-3.5-2.3-9.7-2.3s-9.6,2.1-9.6,2.1l-8,4.6l-5-2.9l11-6.3c0,0,4.3-2.4,11.5-2.4c6.6,0,11.8,2.6,11.8,2.6l25.6,14.8l0,28.2
		C87.6,63.8,85.6,74.4,75.6,81.3z"/>
	<path class="st0" d="M0,41.3l35,20.1l0,6L15.1,55.9L2.5,63l32.4,18.7l0,5.8l-34.7-20c0.1,2.3,2.2,9.6,6.3,15.1
		c4.1,5.7,8.8,8.1,8.8,8.1l32.1,18.5V54L0,26.8L0,41.3z"/>
</g>
</svg>
