<?xml version="1.0" encoding="utf-8"?>
<!-- Generator: Adobe Illustrator 23.0.6, SVG Export Plug-In . SVG Version: 6.00 Build 0)  -->
<svg version="1.1" id="Layer_1" xmlns="http://www.w3.org/2000/svg" xmlns:xlink="http://www.w3.org/1999/xlink" x="0px" y="0px"
	 viewBox="0 0 537.5 109.3" style="enable-background:new 0 0 537.5 109.3;" xml:space="preserve">
<style type="text/css">
	.st0{fill:#1C1C1C;}
	.st1{fill:#005F9E;}
</style>
<g>
	<path class="st0" d="M133.7,71.5l9.3-4.9c4.1,8.2,10.5,12.1,19.2,12.1c8.5,0,14.2-2.7,14.2-9c0-6-4.3-8.8-15.8-12.2
		c-13.4-4-24.3-7.6-24.3-20.9c0-11.8,9.7-19.6,23.8-19.6c13.7,0,21.8,6.8,26,14.9l-8.6,5.9c-4.1-7-10.1-10.1-17.6-10.1
		c-7.7,0-12.1,2.8-12.1,7.9c0,6.5,5,8.7,16.4,12c13.2,3.8,23.7,8.2,23.7,21.2c0,11.4-9.7,20.3-26.2,20.3
		C147.9,89.1,138.1,82,133.7,71.5z"/>
	<path class="st0" d="M192.9,87.8V18.3h11.6v41.4l18.9-21.8H236l-16.3,18.2l17.7,31.7h-12.1l-12.9-23.1l-8,8.7v14.4H192.9
		L192.9,87.8z"/>
	<path class="st0" d="M236.8,62.9c0-19,13.4-25.9,23.8-25.9c11.2,0,21.9,6.7,21.9,27v2.7h-34.1c0.5,9,6,13,13.4,13
		c6.5,0,10.3-2.2,14-5.8l6.1,6c-5.2,5.7-12,9-21,9C248.3,88.8,236.8,81.2,236.8,62.9z M271.8,58c-0.7-7.6-4.4-11.7-11.4-11.7
		c-5.6,0-10.8,3.2-11.9,11.7H271.8z"/>
	<path class="st0" d="M294.9,74.8V47.1h-8.6v-9.2h8.6V20.5h11.6v17.4h12.9v9.2h-12.9v24.7c0,5.4,1.6,7.5,7.3,7.5
		c1.7,0,3.9-0.3,5-0.7v9.1c-1.2,0.3-5.5,0.7-8.5,0.7C297.7,88.5,294.9,83.8,294.9,74.8z"/>
	<path class="st0" d="M323.9,62.9c0-19.1,12.9-25.9,24-25.9c12.4,0,17.7,6.9,20.7,14.6l-9.8,3.5c-2-5.6-5.5-8.4-11.1-8.4
		c-6.6,0-12.1,4.3-12.1,16.3c0,10.6,4.3,16.4,11.9,16.4c5.3,0,8.9-1.6,11.7-8.7l9.6,3.5c-3.6,8-9.5,14.7-21.5,14.7
		C335.6,88.8,323.9,81.1,323.9,62.9z"/>
	<path class="st0" d="M375.7,87.8V18.3h11.7v26.4c3.2-3.4,9.2-7.7,18.2-7.7c8.7,0,14.4,5.2,14.4,15v35.8h-11.7V54.9
		c0-5.5-2.4-8.1-7.4-8.1s-9.3,2.6-13.5,6.5v34.5H375.7L375.7,87.8z"/>
	<path class="st0" d="M428.8,62.4V18.3h11.8v43.1c0,10.6,4.6,16.9,15.3,16.9c10.6,0,15.2-6.1,15.2-16.8V18.3h11.6v44.1
		c0,15.8-8.9,26.6-26.9,26.6C436.6,88.9,428.8,78.2,428.8,62.4z"/>
	<path class="st0" d="M490.3,106.6V37.9h11.6v6.6c3.3-4,8.5-7.5,15.9-7.5c11.4,0,19.7,8.5,19.7,25.9s-8.5,25.8-21.3,25.8
		c-5.4,0-10.6-2.2-14.3-6.3v24.3L490.3,106.6L490.3,106.6z M525.9,62.9c0-10.5-4.5-16.1-11.9-16.1c-4.8,0-9.4,3-12.1,6.3v20
		c3.1,4,7.6,6.2,11.8,6.2C522.3,79.3,525.9,74,525.9,62.9z"/>
</g>
<g>
	<path class="st1" d="M100.1,24L64.7,3.6c0,0-5.6-3.3-14.6-3.3c-9.3,0-14.7,3.4-14.7,3.4L2.6,22.5l49.9,28.7v58l32.8-18.8
		c0,0,5.9-3.2,10.3-10.9c3.9-6.8,4.4-13.3,4.4-13.3L100.1,24L100.1,24z M46.7,33.5c0,0,7.3-1.3,13.5,2.2s9.8,5.7,9.8,5.7s0,5,0,12.4
		c0,6-5,12.1-5,12.1V44L46.7,33.5z M75.7,81.3L65,87.5v-5.8l8.3-4.8c7.9-5.7,9.2-14.1,9.2-17V34L59.9,21c0,0-3.5-2.3-9.7-2.3
		s-9.6,2.1-9.6,2.1l-8,4.6l-5-2.9l11-6.3c0,0,4.3-2.4,11.5-2.4c6.6,0,11.8,2.6,11.8,2.6l25.6,14.8v28.2
		C87.7,63.8,85.7,74.4,75.7,81.3z"/>
	<path class="st1" d="M0.1,41.3l35,20.1v6l-20-11.5L2.6,63L35,81.7v5.8l-34.7-20c0.1,2.3,2.2,9.6,6.3,15.1c4.1,5.7,8.8,8.1,8.8,8.1
		l32.1,18.5V54L0.1,26.8V41.3z"/>
</g>
</svg>
