<?xml version="1.0" encoding="utf-8"?>
<!-- Generator: Adobe Illustrator 25.0.1, SVG Export Plug-In . SVG Version: 6.00 Build 0)  -->
<svg version="1.1" id="Layer_1" xmlns="http://www.w3.org/2000/svg" xmlns:xlink="http://www.w3.org/1999/xlink" x="0px" y="0px"
	 width="282.3815613px" height="100px" viewBox="0 0 282.3815613 100" style="enable-background:new 0 0 282.3815613 100;"
	 xml:space="preserve">
<g id="Products">
</g>
<g id="Products_1_">
</g>
<g>
	<rect x="0.0000056" style="fill:#2857AF;" width="100" height="100"/>
	<g>
		<path style="fill:#FFFFFF;" d="M40.8077049,60.72295c0.679451,0.9594803,1.4588242,1.4991913,2.1382713,1.4592094
			c0.7793694-0.0399818,1.6786423-0.83955,2.3381119-2.0588875c2.1182899-3.9378815,3.4971733-7.8157959,4.8360901-11.5537796
			c1.8784828-5.2571716,3.7969322-10.6742554,7.6737976-15.7915001c4.0966911-5.3371239,10.5514679-7.4160061,12.9095688-7.9956932
			c0.3597031-0.099947,0.4596252-0.5597,0.1798553-0.7795811c-5.7353668-4.5975246-12.9695168-7.3360519-20.8431549-7.3360519
			c-3.856884,0-7.5738831,0.659647-11.031086,1.8789902c-4.2565575,1.4991913-7.1142502,5.4970398-7.2341518,10.0146065
			C31.5751686,37.2755699,32.9740372,49.7488556,40.8077049,60.72295"/>
		<path style="fill:#FFFFFF;" d="M71.8026581,32.4981422c-3.5571213,0.4597549-6.1550217,2.9983864-7.713768,5.0372887
			c-3.1374664,4.1577606-4.7161903,8.5553932-6.5347214,13.6726379c-1.438839,4.0178375-2.9176445,8.1755981-5.3157043,12.6531868
			c-1.9983864,3.7179985-5.1958008,7.5159569-8.7928925,7.7558174c-0.1998405,0-0.3796921,0.0199966-0.5795326,0.0199966
			c-3.2573662,0-6.3548622-3.2582474-8.5331001-6.3166046C26.2994308,54.0465393,24.041256,41.7131767,23.8014507,32.1383324
			c-0.0199833-0.8595371-1.1190948-1.1593761-1.6186905-0.4397621c-4.7361736,6.936264-6.9543791,16.5910683-4.5163498,26.3458138
			c3.1174793,12.4532967,13.209322,21.8282509,24.7799702,24.4268532
			c21.6824722,4.8773727,40.8869553-11.6137466,40.8869553-32.4825134c0-4.1977386-0.7793655-8.2155762-2.1982193-11.9135857
			c-1.0391617-2.6985474-3.3373032-4.7774277-6.1550217-5.3970947
			C73.9009628,32.4181862,72.8418198,32.3582191,71.8026581,32.4981422"/>
	</g>
	<g>
		<g>
			<polygon style="fill:#1C1C1C;" points="148.5333099,16.666666 157.4000244,16.666666 142.2163391,53.3333092 
				135.1850128,53.3333092 120.0000076,16.666666 128.8654022,16.666666 138.7000122,41.0094719 			"/>
			<path style="fill:#1C1C1C;" d="M178.1934357,33.777771h9.6814117c0.5427246,0,1.0959625-0.1266937,1.6545105-0.3814087
				c0.561203-0.2547112,1.0537262-0.6031265,1.4788818-1.0439224c0.4238586-0.4407978,0.7711487-0.9594612,1.0431671-1.5533504
				c0.2720032-0.5925655,0.4093323-1.2313251,0.4093323-1.9096775c0-0.6796722-0.1373291-1.3157902-0.4093323-1.9096775
				c-0.2720184-0.5938892-0.6193085-1.1125546-1.0431671-1.5533504c-0.4251556-0.4394779-0.9176788-0.7892113-1.4788818-1.0439224
				c-0.558548-0.2547092-1.1117859-0.3814068-1.6545105-0.3814068h-9.6814117V33.777771z M178.1934357,53.3338394h-8.1523895
				V16.6671944h8.1523895h10.0881348c1.6980743,0,3.2944794,0.3233433,4.7892151,0.9687004
				c1.4947205,0.6440372,2.8032837,1.5190334,3.9230042,2.6210251c1.1223755,1.1033154,2.004425,2.3953514,2.6514282,3.8708324
				c0.6443787,1.4754829,0.966568,3.0644608,0.966568,4.7616596c0,1.3237133-0.2033539,2.5814342-0.6100464,3.7678871
				c-0.4080048,1.1890984-0.9691925,2.2844925-1.6822357,3.2848625c-0.7143555,1.0030098-1.563385,1.8766899-2.5471191,2.6236649
				c-0.9863586,0.7456589-2.0559082,1.342186-3.2099762,1.7829857l9.9864502,12.9850273h-9.5797577l-9.1717529-12.2222099
				h-5.6039124V53.3338394z"/>
			<path style="fill:#1C1C1C;" d="M217.3994446,47.2139015c1.0523834,0,2.0440216-0.2034988,2.9815369-0.6131439
				c0.9322205-0.4070015,1.7390137-0.9501076,2.4190369-1.6306419c0.6786957-0.6792183,1.221405-1.4866142,1.6307373-2.4221878
				c0.4066925-0.9342537,0.6113586-1.9279747,0.6113586-2.9824753c0-1.0545044-0.2046661-2.0468979-0.6113586-2.9824715
				c-0.4093323-0.9342537-0.9520416-1.7429733-1.6307373-2.4235077c-0.6800232-0.6792183-1.4868164-1.2236519-2.4190369-1.6306496
				c-0.9375153-0.4083252-1.9291534-0.6118259-2.9815369-0.6118259c-1.0537109,0-2.0466766,0.2035007-2.9802399,0.6118259
				c-0.9361877,0.4069977-1.7416534,0.9514313-2.4203644,1.6306496c-0.6813354,0.6805344-1.2240295,1.489254-1.6320496,2.4235077
				c-0.4066925,0.9355736-0.6100464,1.9279671-0.6100464,2.9824715c0,1.0545006,0.2033539,2.0482216,0.6100464,2.9824753
				c0.40802,0.9355736,0.9507141,1.7429695,1.6320496,2.4221878c0.6787109,0.6805344,1.4841766,1.2236404,2.4203644,1.6306419
				C215.3527679,47.0104027,216.3457336,47.2139015,217.3994446,47.2139015 M217.2462769,24.9821167
				c2.0717468,0,4.0325928,0.3818951,5.8838501,1.1470032c1.8525696,0.7651138,3.4568939,1.8103676,4.8156281,3.1357613
				c1.3587189,1.3254013,2.4375153,2.874115,3.2363739,4.6395531c0.7975616,1.7707214,1.1963348,3.6550827,1.1963348,5.6610184
				v13.7666855h-7.1329956v-3.4145813c-0.8833771,1.2910385-2.0215912,2.3191109-3.4133301,3.082901
				c-1.3930511,0.76511-2.9208069,1.1483269-4.5858612,1.1483269c-2.1060944,0-4.0762024-0.3832169-5.9102936-1.1483269
				c-1.8340759-0.7637901-3.4318085-1.8103638-4.7905273-3.1331177c-1.3574066-1.3280411-2.436203-2.8741188-3.2350616-4.640873
				c-0.7988739-1.7693939-1.1963196-3.6550827-1.1963196-5.6610146c0-2.0059357,0.3974457-3.8902969,1.1963196-5.6610184
				c0.7988586-1.7654381,1.877655-3.3141518,3.2350616-4.6395531c1.3587189-1.3253937,2.9564514-2.3706474,4.7905273-3.1357613
				C213.1700745,25.3640118,215.1401825,24.9821167,217.2462769,24.9821167"/>
			<polygon style="fill:#1C1C1C;" points="238.0462494,62.5000114 246.556839,62.5000114 263.2368164,25.8333454 
				254.9326477,25.8333454 247.7481537,41.7014656 240.6151733,25.8333454 232.3096008,25.8333454 243.6218109,50.1201935 			"/>
			<rect x="154.3204803" y="33.8638115" style="fill:#1C1C1C;" width="11.5511637" height="7.1636105"/>
		</g>
	</g>
	<g>
		<path style="fill:#1C1C1C;" d="M122.0062408,67.1796722c0.2709808-0.6290359,0.6379852-1.1750717,1.1014175-1.6389084
			c0.463028-0.4630356,1.0049896-0.83004,1.6258926-1.1010208c0.620491-0.2709808,1.2889938-0.4068756,2.0059128-0.4068756
			h1.4688339v3.1468048h-0.0524902c-0.419899,0-0.817421,0.0789337-1.1933746,0.2359848
			c-0.3759537,0.1578751-0.7039032,0.3759613-0.983429,0.6558914c-0.1399612,0.1399689-0.2490082,0.3059769-0.3275375,0.498024
			c-0.0789337,0.1928558-0.1179962,0.3938522-0.1179962,0.6029892h2.6748276v3.3567581h-2.6748276v10.8042679h-3.9337082V72.5293198
			h-1.5994415v-3.3567581h1.5994415C121.599762,68.4735489,121.734848,67.8095169,122.0062408,67.1796722z"/>
		<path style="fill:#1C1C1C;" d="M144.6238098,76.2530899c0,1.0318451-0.2058868,2.0018387-0.6164246,2.9108047
			c-0.4109497,0.9089661-0.9703979,1.7048264-1.6783752,2.3867493c-0.707962,0.6819305-1.5339203,1.2190094-2.47789,1.6128693
			c-0.9443665,0.3930435-1.9582977,0.5899734-3.0422211,0.5899734s-2.0978699-0.1969299-3.0418243-0.5899734
			c-0.9439545-0.3938599-1.769928-0.9309387-2.478302-1.6128693c-0.707962-0.6819229-1.2674255-1.4777832-1.6779633-2.3867493
			c-0.4109497-0.9089661-0.6164246-1.8789597-0.6164246-2.9108047c0-1.0310287,0.2054749-2.0018387,0.6164246-2.9108124
			c0.4105377-0.9089661,0.9700012-1.7040024,1.6779633-2.3859329c0.708374-0.6819229,1.5343475-1.2198181,2.478302-1.6128616
			c0.9439545-0.3938599,1.957901-0.5899734,3.0418243-0.5899734s2.0978546,0.1961136,3.0422211,0.5899734
			c0.9439697,0.3930435,1.769928,0.9309387,2.47789,1.6128616c0.7079773,0.6819305,1.2674255,1.4769669,1.6783752,2.3859329
			C144.417923,74.2512512,144.6238098,75.2220612,144.6238098,76.2530899z M140.6901093,76.2530899
			c0-0.5411453-0.1009064-1.0530014-0.3014984-1.5339355c-0.2014008-0.4809265-0.4764557-0.8959427-0.8259583-1.2458572
			c-0.3499146-0.3491058-0.7604675-0.6290359-1.2328491-0.8389816c-0.4719696-0.2099533-0.9789429-0.3149261-1.5209045-0.3149261
			s-1.0489349,0.1049728-1.5209198,0.3149261c-0.4719696,0.2099457-0.8829193,0.4898758-1.2324371,0.8389816
			c-0.3499146,0.3499146-0.6253662,0.7649307-0.8259583,1.2458572c-0.2014008,0.4809341-0.3014984,0.9927902-0.3014984,1.5339355
			c0,0.5419617,0.1000977,1.0538177,0.3014984,1.5339279c0.200592,0.4809341,0.4760437,0.8967667,0.8259583,1.2458649
			c0.3495178,0.3499146,0.7604675,0.6290359,1.2324371,0.8389816c0.4719849,0.2099533,0.9789581,0.3149261,1.5209198,0.3149261
			s1.0489349-0.1049728,1.5209045-0.3149261c0.4723816-0.2099457,0.8829346-0.4890671,1.2328491-0.8389816
			c0.3495026-0.3490982,0.6245575-0.7649307,0.8259583-1.2458649
			C140.5892029,77.3069077,140.6901093,76.7950516,140.6901093,76.2530899z"/>
		<path style="fill:#1C1C1C;" d="M146.603714,73.3422623c0.3580475-0.9089661,0.8605499-1.70401,1.5074921-2.3859406
			c0.6469269-0.6819305,1.4204102-1.2198257,2.3208313-1.6128693c0.9004211-0.3938599,1.892395-0.5899734,2.9763184-0.5899734
			h0.5244751v3.5658875c-0.5419617,0-1.053421,0.1049728-1.5339355,0.3149261
			c-0.4809418,0.2099457-0.8959503,0.4898834-1.2454681,0.8389816c-0.3499146,0.3499222-0.6294403,0.7649384-0.839386,1.2458649
			c-0.2095337,0.4809341-0.3145142,0.9927902-0.3145142,1.5339355v7.080513h-3.9337158v-7.080513
			C146.0658112,75.2220459,146.2448425,74.2512283,146.603714,73.3422623z"/>
		<path style="fill:#1C1C1C;" d="M169.7688141,72.2673111c0.6469421,0.1220627,1.2719116,0.3189926,1.8753052,0.5899734
			c0.6029968,0.2709808,1.1404877,0.6249619,1.6124573,1.0619507c0.4723816,0.4369888,0.852417,0.9488373,1.1408844,1.5339279
			c0.2884827,0.585907,0.4325104,1.2548141,0.4325104,2.0067291c0,0.9089661-0.1704712,1.7479477-0.5110321,2.5169449
			c-0.3409576,0.7698212-0.8263702,1.4338455-1.4553986,1.992897c-0.6294403,0.5598602-1.3943787,0.9968491-2.2947998,1.3117752
			c-0.9004211,0.3141098-1.9102936,0.4719772-3.0288086,0.4719772c-1.0139313,0-1.957901-0.1798401-2.8318634-0.5378952
			c-0.8748016-0.3580551-1.6307678-0.8430481-2.2683563-1.4558105c-0.638382-0.6111298-1.1368103-1.3190994-1.494873-2.1239014
			c-0.3584595-0.8039932-0.5374756-1.6519318-0.5374756-2.543808h4.090744
			c0.0870819,0.8218918,0.4064789,1.5078964,0.9569855,2.0588074c0.5509186,0.5509109,1.2458649,0.8259583,2.0848389,0.8259583
			c0.9789581,0,1.7609711-0.2180862,2.3468781-0.6550674c0.585907-0.4369888,0.8788605-1.0578842,0.8788605-1.8618774
			c0-0.3849106-0.1009064-0.708786-0.3019104-0.9708099c-0.2009888-0.2620316-0.4939423-0.4890747-0.8784485-0.6819305
			c-0.384491-0.1920471-0.852005-0.3621216-1.4029083-0.5110397c-0.5505066-0.1481018-1.1758881-0.3019028-1.8749084-0.4589615
			c-0.7693939-0.1741409-1.4948578-0.4019928-2.1763916-0.6819229c-0.6819153-0.2791214-1.2808533-0.6200867-1.7963562-1.0228958
			c-0.5159302-0.4019928-0.9223938-0.8650208-1.2194214-1.3899002c-0.2974243-0.5240555-0.4459381-1.1270523-0.4459381-1.8089752
			c0-0.8560715,0.1615295-1.6478577,0.4850006-2.3737335c0.3234711-0.7250519,0.7824249-1.3500214,1.3768768-1.8748932
			c0.5940399-0.5240631,1.3154297-0.9309387,2.1633759-1.2190094c0.8479309-0.2888794,1.7963562-0.4329147,2.8452911-0.4329147
			c0.9439697,0,1.8358459,0.1489182,2.6748199,0.4459381c0.839386,0.2978363,1.5774689,0.7079697,2.2158661,1.2328415
			c0.6379852,0.5240555,1.1408844,1.1400681,1.5078888,1.8480377c0.3670044,0.708786,0.5509186,1.4818497,0.5509186,2.3208389
			h-4.169693c-0.1749573-0.5940475-0.520401-1.0879974-1.0359192-1.481041
			c-0.5159149-0.3938599-1.0973511-0.5899734-1.7438812-0.5899734c-0.786499,0-1.4513245,0.1879807-1.9928894,0.563118
			c-0.5419617,0.37677-0.8129425,0.8438721-0.8129425,1.4037323c0,0.332016,0.144043,0.6290359,0.4325104,0.8910675
			c0.2884827,0.2620239,0.6689148,0.4939499,1.1408844,0.6949463c0.4719849,0.2009964,1.0094757,0.3759537,1.6128693,0.5248718
			C168.5233612,72.0353851,169.1397858,72.1623306,169.7688141,72.2673111z"/>
		<path style="fill:#1C1C1C;" d="M184.1458588,75.204155l6.1284027,8.1294327h-4.533844l-5.4558258-7.4735413v7.4735413h-3.7371826
			V64.4528046h3.7371826v10.1483612l4.3344727-5.4285736h4.4842072L184.1458588,75.204155z"/>
		<path style="fill:#1C1C1C;" d="M196.9218445,68.7535095c1.0839233,0,2.1064148,0.1961136,3.0682678,0.5899734
			c0.9610596,0.3930435,1.7963715,0.9309387,2.5043488,1.6128616c0.707962,0.6819305,1.2674255,1.4769669,1.67836,2.3859329
			c0.410553,0.9089737,0.6160278,1.8797836,0.6160278,2.9108124c0,0.2449417-0.013031,0.47686-0.0390625,0.6949463
			c-0.0264587,0.2189026-0.0569611,0.4418716-0.0919647,0.6689072h-11.4332733
			c0.2970123,0.751915,0.773468,1.3679276,1.4289551,1.8488617c0.6554718,0.4809265,1.4114532,0.7209854,2.2683411,0.7209854
			c0.6294403,0,1.2149353-0.1399689,1.7569122-0.419899c0.5419617-0.2791214,0.9874878-0.6461258,1.3374023-1.1010132h4.3531952
			c-0.2620392,0.7340088-0.6339264,1.4159393-1.1144409,2.0449677c-0.4809265,0.6298523-1.0489349,1.1669312-1.704422,1.6128693
			c-0.6558838,0.4459381-1.3768768,0.7958527-2.1633606,1.0489349c-0.786911,0.253891-1.6088104,0.3808365-2.4652863,0.3808365
			c-1.0839233,0-2.1068115-0.1969299-3.0682678-0.5899734c-0.9614563-0.3938599-1.7959595-0.9309387-2.5043335-1.6128693
			c-0.7079773-0.6819229-1.2674255-1.4777832-1.6779633-2.3867493c-0.4109497-0.9089661-0.6164246-1.8789597-0.6164246-2.9108047
			c0-1.0310287,0.2054749-2.0018387,0.6164246-2.9108124c0.4105377-0.9089661,0.969986-1.7040024,1.6779633-2.3859329
			c0.708374-0.6819229,1.5428772-1.2198181,2.5043335-1.6128616
			C194.815033,68.9496231,195.8379211,68.7535095,196.9218445,68.7535095z M200.6195526,74.8631897
			c-0.2974243-0.7437744-0.7783508-1.3532715-1.4423828-1.8293228c-0.6644287-0.4760437-1.4159241-0.7144775-2.2553253-0.7144775
			c-0.8568878,0-1.6128693,0.2384338-2.2683411,0.7144775c-0.6554871,0.4760513-1.1319427,1.0855484-1.4289551,1.8293228
			H200.6195526z"/>
		<path style="fill:#1C1C1C;" d="M210.2174072,69.1725922h3.9333038v3.3567429h-3.9333038v3.7237549
			c0,0.5419617,0.1049805,1.0538177,0.3145294,1.5339279c0.2099457,0.4809341,0.4894714,0.8967667,0.839386,1.2458649
			c0.3495026,0.3499146,0.7645264,0.6290359,1.2454529,0.8389816c0.4805298,0.2099533,0.9919739,0.3149261,1.5339355,0.3149261
			v3.5666962h-0.5244751c-1.0839233,0-2.075882-0.1969299-2.9763031-0.5899734
			c-0.9004211-0.3938599-1.6743164-0.9309387-2.3208466-1.6128693c-0.6469269-0.6819229-1.1494293-1.4777832-1.5078888-2.3867493
			s-0.5374908-1.8789597-0.5374908-2.9108047V64.4528046h3.9337006V69.1725922z"/>
		<path style="fill:#1C1C1C;" d="M222.9356232,72.3193893c-0.5419617,0-1.0534058,0.1049728-1.5339355,0.3149261
			c-0.4809265,0.2099457-0.896347,0.4898758-1.2458649,0.8389816c-0.3499146,0.3499146-0.6290283,0.7649307-0.838974,1.2458572
			c-0.2099609,0.4809341-0.3145294,0.9927902-0.3145294,1.5339355c0,0.5419617,0.1045685,1.0538177,0.3145294,1.5339279
			c0.2099457,0.4809341,0.4890594,0.8967667,0.838974,1.2458649c0.3495178,0.3499146,0.7649384,0.6290359,1.2458649,0.8389816
			c0.4805298,0.2099533,0.9919739,0.3149261,1.5339355,0.3149261c0.7344055,0,1.3939667-0.1839066,1.9798737-0.5509109
			c0.585495-0.3670044,1.0444489-0.8479385,1.3768768-1.4419785h4.2217712
			c-0.2274475,0.8039932-0.5769653,1.5428848-1.0489349,2.2158585c-0.4719849,0.6729736-1.04039,1.2588806-1.704422,1.7569046
			c-0.6644287,0.4980164-1.4073944,0.8878021-2.2288818,1.1669235c-0.8218842,0.2791214-1.6873169,0.419899-2.596283,0.419899
			c-1.0839233,0-2.1068268-0.1969299-3.0682678-0.5899734c-0.9614563-0.3938599-1.7959595-0.9309387-2.5043488-1.6128693
			c-0.707962-0.6819229-1.2674255-1.4777832-1.6779633-2.3867493c-0.4109497-0.9089661-0.6164246-1.8789597-0.6164246-2.9108047
			c0-1.0310287,0.2054749-2.0018387,0.6164246-2.9108124c0.4105377-0.9089661,0.9700012-1.7040024,1.6779633-2.3859329
			c0.7083893-0.6819229,1.5428925-1.2198181,2.5043488-1.6128616c0.961441-0.3938599,1.9843445-0.5899734,3.0682678-0.5899734
			c0.9089661,0,1.7788696,0.1440353,2.609314,0.4320984c0.8300323,0.288887,1.5819397,0.6819305,2.2553253,1.1807632
			c0.6725616,0.498024,1.249527,1.0969467,1.7304535,1.7959595c0.4809265,0.6998367,0.8263702,1.4509354,1.0359039,2.254921
			h-4.1432343c-0.3499146-0.6290283-0.8259735-1.1360016-1.4289551-1.5209122
			C224.3910217,72.5122528,223.7046204,72.3193893,222.9356232,72.3193893z"/>
		<path style="fill:#1C1C1C;" d="M239.3779907,68.7535095c1.0835114,0,2.0754852,0.1961136,2.9763031,0.5899734
			c0.9000244,0.3930435,1.6739044,0.9309387,2.3208466,1.6128616c0.6465302,0.6819305,1.1490173,1.4769669,1.5078888,2.3859329
			c0.3580475,0.9089737,0.5374756,1.8797836,0.5374756,2.9108124v7.0804977h-3.9337006v-7.0804977
			c0-0.5411453-0.0744476-1.0530014-0.2229614-1.5339355c-0.1485138-0.4809265-0.3670044-0.8959427-0.6554871-1.2458572
			c-0.2884674-0.3491058-0.6469269-0.6290359-1.0749664-0.8389816c-0.4288483-0.2099533-0.9138489-0.3149261-1.4553986-0.3149261
			c-0.5423737,0-1.0273743,0.1049728-1.4554138,0.3149261c-0.4288483,0.2099457-0.7868958,0.4898758-1.0753784,0.8389816
			c-0.2884827,0.3499146-0.50737,0.7608643-0.6554718,1.2328415c-0.1489258,0.4719772-0.2229767,0.9789505-0.2229767,1.5209122
			v7.1065369h-3.9332886V64.4528046h3.9332886v5.5595856c0.454483-0.4020004,0.9703979-0.7128525,1.5473633-0.9309387
			C238.0930634,68.8625488,238.71315,68.7535095,239.3779907,68.7535095z"/>
		<path style="fill:#1C1C1C;" d="M264.9044495,76.043129c0,1.1018219-0.2058716,2.1247177-0.6164246,3.0686798
			c-0.4109497,0.9439621-0.9793701,1.7569046-1.7044067,2.4388351c-0.7258911,0.6819305-1.5823669,1.2190094-2.5698547,1.6128693
			c-0.987915,0.3930435-2.0588074,0.5899734-3.2127075,0.5899734c-1.1535187,0-2.224823-0.1969299-3.212326-0.5899734
			c-0.9878998-0.3938599-1.8443756-0.9309387-2.5698395-1.6128693c-0.7254791-0.6819305-1.2938843-1.494873-1.704422-2.4388351
			c-0.4109497-0.9439621-0.6164246-1.9668579-0.6164246-3.0686798V64.4527664h4.1957397v11.328331
			c0,0.5769501,0.0960236,1.1189194,0.2884827,1.625885c0.1924438,0.5069733,0.463028,0.9529114,0.8129425,1.337822
			c0.3495026,0.3840942,0.7604523,0.685997,1.2324371,0.9040833c0.4723816,0.2189026,0.9968414,0.3279495,1.57341,0.3279495
			c0.5769348,0,1.1014099-0.1090469,1.5737915-0.3279495c0.4719849-0.2180862,0.8825378-0.519989,1.2324524-0.9040833
			c0.3494873-0.3849106,0.6200867-0.8308487,0.8129272-1.337822c0.1920471-0.5069656,0.2884827-1.0489349,0.2884827-1.625885
			v-11.328331h4.1957397V76.043129z"/>
		<path style="fill:#1C1C1C;" d="M274.5930786,68.753479c1.06604,0,2.0755005,0.1961136,3.0288086,0.5899734
			c0.9525146,0.3930435,1.7784729,0.9309387,2.4779053,1.6128693c0.6990051,0.6819305,1.2543945,1.4769745,1.6653442,2.3859406
			c0.410553,0.9089661,0.6164246,1.8797836,0.6164246,2.9108124c0,1.0318451-0.2058716,2.0018463-0.6164246,2.9108124
			c-0.4109497,0.9089737-0.9663391,1.7048264-1.6653442,2.3867569c-0.6994324,0.6819305-1.5253906,1.2190094-2.4779053,1.6128693
			c-0.9533081,0.3930435-1.9627686,0.5899734-3.0288086,0.5899734c-0.7518921,0-1.4554138-0.1407776-2.1112976-0.419899
			c-0.6554871-0.2791214-1.236908-0.6640244-1.7434692-1.1539078v5.8745193h-3.9337158V76.2530746
			c0-1.0310287,0.2050781-2.0018463,0.6164246-2.9108124c0.410553-0.9089661,0.9655151-1.70401,1.6649475-2.3859406
			c0.6990356-0.6819305,1.5209351-1.2198257,2.4648743-1.6128693
			C272.4952087,68.9495926,273.5087585,68.753479,274.5930786,68.753479z M274.5141602,80.1867828
			c0.5419617,0,1.0529785-0.1049728,1.5343323-0.3149261c0.4805298-0.2099457,0.8955383-0.4890671,1.2454529-0.8389816
			c0.3495178-0.3491058,0.6294556-0.7649307,0.839386-1.2458649c0.2095642-0.4801178,0.3145142-0.9919739,0.3145142-1.5339355
			c0-0.5411453-0.10495-1.0530014-0.3145142-1.5339355c-0.2099304-0.4809265-0.4898682-0.8959427-0.839386-1.2458649
			c-0.3499146-0.3490982-0.7649231-0.6290359-1.2454529-0.8389816c-0.4813538-0.2099533-0.9923706-0.3149261-1.5343323-0.3149261
			s-1.0534058,0.1049728-1.5339355,0.3149261c-0.4809265,0.2099457-0.8959656,0.4898834-1.2454529,0.8389816
			c-0.3499146,0.3499222-0.6294556,0.7649384-0.8394165,1.2458649c-0.2095337,0.4809341-0.3145142,0.9927902-0.3145142,1.5339355
			c0,0.5419617,0.1049805,1.0538177,0.3145142,1.5339355c0.2099609,0.4809341,0.489502,0.896759,0.8394165,1.2458649
			c0.3494873,0.3499146,0.7645264,0.6290359,1.2454529,0.8389816
			C273.4607544,80.08181,273.9721985,80.1867828,274.5141602,80.1867828z"/>
	</g>
</g>
<g id="Products_2_">
</g>
<g id="Products_3_">
</g>
<g id="Products_4_">
</g>
<g id="Products_5_">
</g>
<g id="Products_6_">
</g>
<g id="Products_7_">
</g>
</svg>
